HIERARCHY
ROOT Hips
{
	OFFSET -3.958830 18.904000 13.208200
	CHANNELS 6 Xposition Yposition Zposition Zrotation Yrotation Xrotation 
	JOINT LHipJoint
	{
		OFFSET 0.000000 0.000000 0.000000
		CHANNELS 3 Zrotation Yrotation Xrotation
		JOINT LeftUpLeg
		{
			OFFSET 1.800000 -1.400000 0.085000
			CHANNELS 3 Zrotation Yrotation Xrotation
			JOINT LeftLeg
			{
				OFFSET 2.215000 -6.000000 0.000000
				CHANNELS 3 Zrotation Yrotation Xrotation
				JOINT LeftFoot
				{
					OFFSET 2.500000 -6.900000 0.000000
					CHANNELS 3 Zrotation Yrotation Xrotation
					JOINT LeftToeBase
					{
						OFFSET 0.200000 -0.500000 1.950000
						CHANNELS 3 Zrotation Yrotation Xrotation
						End Site
						{
							OFFSET 0.000000 0.000000 0.000000
						}
					}
				}
			}
		}
	}
	JOINT RHipJoint
	{
		OFFSET 0.000000 0.000000 0.000000
		CHANNELS 3 Zrotation Yrotation Xrotation
		JOINT RightUpLeg
		{
			OFFSET -1.800000 -1.400000 0.085000
			CHANNELS 3 Zrotation Yrotation Xrotation
			JOINT RightLeg
			{
				OFFSET -2.215000 -6.000000 0.000000
				CHANNELS 3 Zrotation Yrotation Xrotation
				JOINT RightFoot
				{
					OFFSET -2.500000 -6.900000 0.000000
					CHANNELS 3 Zrotation Yrotation Xrotation
					JOINT RightToeBase
					{
						OFFSET -0.200000 -0.500000 1.950000
						CHANNELS 3 Zrotation Yrotation Xrotation
						End Site
						{
							OFFSET 0.000000 0.000000 0.000000
						}
					}
				}
			}
		}
	}
	JOINT LowerBack
	{
		OFFSET 0.000000 0.000000 0.000000
		CHANNELS 3 Zrotation Yrotation Xrotation
		JOINT Spine
		{
			OFFSET -0.087000 1.940000 -0.288900
			CHANNELS 3 Zrotation Yrotation Xrotation
			JOINT Spine1
			{
				OFFSET 0.000000 1.950000 0.060000
				CHANNELS 3 Zrotation Yrotation Xrotation
				JOINT Neck
				{
					OFFSET 0.000000 0.000000 0.000000
					CHANNELS 3 Zrotation Yrotation Xrotation
					JOINT Neck1
					{
						OFFSET 0.000000 1.600000 0.340000
						CHANNELS 3 Zrotation Yrotation Xrotation
						JOINT Head
						{
							OFFSET 0.000000 1.667000 -0.240000
							CHANNELS 3 Zrotation Yrotation Xrotation
							End Site
							{
								OFFSET 0.000000 0.000000 0.000000
							}
						}
					}
				}
				JOINT LeftShoulder
				{
					OFFSET 0.000000 0.000000 0.000000
					CHANNELS 3 Zrotation Yrotation Xrotation
					JOINT LeftArm
					{
						OFFSET 2.700000 1.550000 -0.730000
						CHANNELS 3 Zrotation Yrotation Xrotation
						JOINT LeftForeArm
						{
							OFFSET 5.450000 0.000000 0.000000
							CHANNELS 3 Zrotation Yrotation Xrotation
							JOINT LeftHand
							{
								OFFSET 3.450000 0.000000 0.000000
								CHANNELS 3 Zrotation Yrotation Xrotation
								JOINT LeftHandIndex1
								{
									OFFSET 0.750000 0.000000 0.000000
									CHANNELS 3 Zrotation Yrotation Xrotation
									End Site
									{
										OFFSET 0.000000 0.000000 0.000000
									}
								}
							}
						}
					}
				}
				JOINT RightShoulder
				{
					OFFSET 0.000000 0.000000 0.000000
					CHANNELS 3 Zrotation Yrotation Xrotation
					JOINT RightArm
					{
						OFFSET -2.700000 1.550000 -0.730000
						CHANNELS 3 Zrotation Yrotation Xrotation
						JOINT RightForeArm
						{
							OFFSET -5.450000 0.000000 0.000000
							CHANNELS 3 Zrotation Yrotation Xrotation
							JOINT RightHand
							{
								OFFSET -3.450000 0.000000 0.000000
								CHANNELS 3 Zrotation Yrotation Xrotation
								JOINT RightHandIndex1
								{
									OFFSET -0.750000 0.000000 0.000000
									CHANNELS 3 Zrotation Yrotation Xrotation
									End Site
									{
										OFFSET 0.000000 0.000000 0.000000
									}
								}
							}
						}
					}
				}
			}
		}
	}
}
MOTION
Frames: 7
Frame Time: 0.016667
-0.586660 16.956020 -6.659230 -2.652808 -14.544773 -4.665641 -15.433498 9.293197 6.589089 29.026650 -1.543538 -39.436568 -53.232791 30.784913 31.966645 1.639677 13.664294 0.265771 -0.321590 -0.644770 -0.643650 18.673419 -7.603800 3.810794 -25.813377 9.848154 -35.429890 29.456312 -23.358986 45.002209 -1.822731 -10.153883 0.668123 -0.433340 1.101180 0.796910 -4.194626 -1.142937 -10.034665 16.973280 -7.627680 42.877678 -11.637359 0.289070 6.313447 3.728162 -10.773885 -15.768787 -26.650854 10.236273 43.343280 5.281190 -6.630390 -15.380110 -12.093784 -14.957023 7.867782 -42.904398 7.056153 -18.902751 29.130805 -64.037378 -22.725874 -3.656303 2.446695 0.944210 0.228340 0.221450 0.361330 5.300542 25.301393 10.512288 37.290322 7.233091 -20.275367 3.941022 69.203657 -1.772004 1.594416 -1.027326 -0.312830 0.641430 0.715930 0.307180 
-0.582360 16.886710 -6.673840 -2.883483 -14.730990 -5.601693 -15.444539 9.244514 6.599680 29.758245 -1.242817 -38.811982 -54.650666 31.248125 31.603093 1.650910 13.698148 0.248858 -0.286510 -0.597730 -0.609200 18.672519 -7.542525 3.841326 -26.602747 9.944865 -34.990269 31.024014 -24.068111 44.763211 -1.908688 -10.286656 0.621707 -0.409830 1.067350 0.799370 -4.193064 -1.136496 -10.057473 17.211972 -8.127554 44.794528 -11.920978 0.144978 6.598921 3.967924 -10.853139 -15.761236 -26.704462 10.150082 42.992631 5.513330 -6.481000 -18.137220 -11.867807 -15.328981 7.874117 -42.272388 7.400012 -19.207811 29.706007 -64.322853 -23.170237 -3.616718 2.415924 0.984270 0.194010 0.266150 0.360110 4.619405 25.732851 10.495319 37.000091 7.237087 -21.090450 1.385837 70.136751 -3.479922 1.558652 -0.983251 -0.308560 0.662450 0.702140 0.299740 
-0.579880 16.774740 -6.685970 -2.995061 -15.016658 -6.879208 -15.486017 9.219329 6.611180 30.803256 -0.791373 -37.910611 -56.744539 32.018422 31.075283 1.716471 13.722836 0.239266 -0.248680 -0.544290 -0.577000 18.648697 -7.391640 3.908615 -28.090592 9.984260 -34.531170 33.474369 -25.305538 44.557938 -2.025438 -10.545372 0.541396 -0.397000 1.016250 0.805090 -4.118986 -1.301918 -10.113167 16.947230 -8.579045 47.218437 -11.741903 -0.110419 7.063359 4.313941 -10.937395 -16.270809 -26.993270 10.374109 42.778493 5.363620 -6.250920 -19.608470 -11.921390 -16.657140 8.446348 -41.591936 9.132862 -20.087082 30.638328 -64.553466 -23.854960 -3.546382 2.432342 0.995170 0.158740 0.307150 0.358660 4.137345 27.267611 10.828657 35.883376 6.403894 -22.602038 -3.062929 71.451161 -6.584740 1.514219 -0.955591 -0.276090 0.645150 0.674270 0.300770 
-0.574700 16.663870 -6.686970 -3.368128 -15.421179 -7.738168 -15.529730 9.164244 6.633696 32.167006 -0.107241 -37.109920 -58.866306 32.810737 30.401219 1.763707 13.744468 0.227985 -0.243620 -0.527480 -0.580080 18.634521 -7.201033 4.007355 -29.570228 10.106592 -34.487429 36.259134 -26.718786 44.264434 -2.134674 -10.814627 0.461309 -0.397060 0.991260 0.809320 -4.067760 -1.464811 -10.182648 17.207785 -9.110975 48.987285 -11.668741 -0.313375 7.174318 4.629110 -11.032616 -16.735279 -27.723282 10.756121 43.102989 5.427600 -6.372790 -20.217340 -12.650316 -17.770304 8.896011 -40.402397 10.924828 -20.338870 29.679118 -63.828090 -22.836237 -3.511243 2.475743 1.001970 0.138030 0.328650 0.351290 4.357704 28.500949 11.068169 33.783856 5.323116 -23.219747 -4.126447 71.620712 -7.076282 1.491962 -0.952893 -0.257860 0.634110 0.674790 0.306730 
-0.567710 16.562450 -6.679470 -3.364014 -15.578207 -8.492161 -15.578310 9.182670 6.626963 32.934271 0.246155 -36.389334 -60.562400 33.588413 30.056958 1.788023 13.778163 0.216037 -0.230460 -0.518220 -0.551190 18.603083 -7.031048 4.085488 -31.159367 9.958809 -34.243244 38.855457 -27.789765 43.516348 -2.204659 -10.959952 0.420115 -0.392400 0.962550 0.800450 -3.965715 -1.731359 -10.232795 16.876974 -9.318616 50.203160 -11.225935 -0.572712 7.256098 4.916763 -11.103848 -17.091341 -28.411026 11.288696 43.604651 4.824180 -6.170110 -20.657390 -13.501849 -18.581383 9.249180 -39.631205 12.371184 -20.375807 27.720072 -62.794855 -21.183200 -3.487528 2.509165 1.019430 0.118870 0.342580 0.337650 4.734020 29.460473 11.153144 31.691286 4.861038 -23.196729 -4.559771 70.023561 -6.684552 1.481844 -0.941061 -0.258230 0.636610 0.669410 0.292590 
-0.556600 16.475160 -6.666850 -3.229965 -15.662658 -8.777511 -15.620177 9.194127 6.620455 33.379111 0.520050 -36.155963 -61.546053 34.361496 30.077885 1.823822 13.824490 0.209726 -0.212850 -0.518840 -0.509620 18.578796 -6.881400 4.173313 -32.554938 9.841619 -34.513513 40.490383 -28.721804 43.417558 -2.267013 -11.109126 0.376600 -0.397560 0.939860 0.800870 -3.878564 -1.953546 -10.291023 16.567595 -9.166927 50.432865 -10.764192 -0.524854 7.420393 5.116334 -10.872129 -17.654513 -28.529264 11.793835 44.753487 4.619840 -5.986570 -20.053170 -13.865695 -19.591732 9.740754 -39.695184 13.164901 -20.379058 25.048656 -61.528692 -19.218677 -3.463830 2.562602 1.031230 0.103370 0.356120 0.332580 4.805749 30.463411 11.454796 31.081847 4.228825 -23.530224 -6.138375 68.843107 -7.281751 1.473312 -0.932055 -0.252880 0.628150 0.652940 0.280200 
-0.536690 16.437540 -6.650320 -3.270478 -15.615975 -8.796189 -15.645296 9.223869 6.627218 33.532115 0.644855 -36.265861 -61.455984 34.894959 30.593569 1.837222 13.871818 0.183649 -0.204660 -0.521710 -0.487960 18.559656 -6.799103 4.216464 -33.310741 9.820032 -34.596591 41.304253 -29.129753 43.266029 -2.290126 -11.160569 0.358541 -0.404390 0.910980 0.803160 -3.813746 -2.116986 -10.329602 16.689029 -9.255606 50.386310 -10.652780 -0.414923 7.492413 5.480288 -10.584364 -18.402745 -28.668610 12.195855 46.371871 4.173150 -5.947780 -19.185960 -14.901012 -20.966639 10.280511 -39.682283 14.131098 -20.497959 22.251423 -60.263668 -17.355062 -3.441318 2.621690 1.040650 0.091290 0.366940 0.320660 5.224169 31.896710 11.913569 30.762936 3.681514 -23.882807 -8.516198 66.696534 -8.094584 1.455846 -0.916710 -0.243240 0.606970 0.647600 0.267610 
